<mxfile host="Electron" agent="Mozilla/5.0 (Windows NT 10.0; Win64; x64) AppleWebKit/537.36 (KHTML, like Gecko) draw.io/28.1.2 Chrome/138.0.7204.243 Electron/37.4.0 Safari/537.36" version="28.1.2">
  <diagram name="Page-1" id="4SRao23G4DxYXFatymKM">
    <mxGraphModel dx="1226" dy="736" grid="0" gridSize="4" guides="1" tooltips="1" connect="1" arrows="1" fold="1" page="1" pageScale="1" pageWidth="850" pageHeight="1100" math="0" shadow="0">
      <root>
        <mxCell id="0" />
        <mxCell id="1" parent="0" />
        <mxCell id="Rqm7rj3_fW2ztHNrZPdj-2" value="" style="rounded=1;whiteSpace=wrap;html=1;arcSize=4;dashed=1;" vertex="1" parent="1">
          <mxGeometry x="9" y="250" width="160" height="380" as="geometry" />
        </mxCell>
        <mxCell id="Rqm7rj3_fW2ztHNrZPdj-7" value="" style="rounded=1;whiteSpace=wrap;html=1;arcSize=4;dashed=1;fillColor=#ffe6cc;strokeColor=#d79b00;shadow=0;labelBackgroundColor=none;labelBorderColor=none;" vertex="1" parent="1">
          <mxGeometry x="234" y="251" width="150" height="380" as="geometry" />
        </mxCell>
        <mxCell id="Rqm7rj3_fW2ztHNrZPdj-3" value="Sources" style="text;html=1;align=center;verticalAlign=middle;whiteSpace=wrap;rounded=0;fontFamily=Lucida Console;labelBackgroundColor=default;" vertex="1" parent="1">
          <mxGeometry x="67" y="232" width="60" height="30" as="geometry" />
        </mxCell>
        <mxCell id="Rqm7rj3_fW2ztHNrZPdj-33" style="edgeStyle=orthogonalEdgeStyle;rounded=0;orthogonalLoop=1;jettySize=auto;html=1;entryX=0;entryY=0.5;entryDx=0;entryDy=0;" edge="1" parent="1" source="Rqm7rj3_fW2ztHNrZPdj-4" target="Rqm7rj3_fW2ztHNrZPdj-17">
          <mxGeometry relative="1" as="geometry" />
        </mxCell>
        <mxCell id="Rqm7rj3_fW2ztHNrZPdj-36" style="edgeStyle=orthogonalEdgeStyle;rounded=0;orthogonalLoop=1;jettySize=auto;html=1;" edge="1" parent="1" source="Rqm7rj3_fW2ztHNrZPdj-4" target="Rqm7rj3_fW2ztHNrZPdj-18">
          <mxGeometry relative="1" as="geometry" />
        </mxCell>
        <mxCell id="Rqm7rj3_fW2ztHNrZPdj-37" style="edgeStyle=orthogonalEdgeStyle;rounded=0;orthogonalLoop=1;jettySize=auto;html=1;entryX=0;entryY=0.5;entryDx=0;entryDy=0;" edge="1" parent="1" source="Rqm7rj3_fW2ztHNrZPdj-4" target="Rqm7rj3_fW2ztHNrZPdj-19">
          <mxGeometry relative="1" as="geometry" />
        </mxCell>
        <mxCell id="Rqm7rj3_fW2ztHNrZPdj-4" value="" style="image;html=1;image=img/lib/clip_art/general/Full_Folder_128x128.png" vertex="1" parent="1">
          <mxGeometry x="73" y="332" width="48" height="48" as="geometry" />
        </mxCell>
        <mxCell id="Rqm7rj3_fW2ztHNrZPdj-44" style="edgeStyle=orthogonalEdgeStyle;rounded=0;orthogonalLoop=1;jettySize=auto;html=1;entryX=0;entryY=0.5;entryDx=0;entryDy=0;" edge="1" parent="1" source="Rqm7rj3_fW2ztHNrZPdj-6" target="Rqm7rj3_fW2ztHNrZPdj-20">
          <mxGeometry relative="1" as="geometry" />
        </mxCell>
        <mxCell id="Rqm7rj3_fW2ztHNrZPdj-45" style="edgeStyle=orthogonalEdgeStyle;rounded=0;orthogonalLoop=1;jettySize=auto;html=1;entryX=0;entryY=0.5;entryDx=0;entryDy=0;" edge="1" parent="1" source="Rqm7rj3_fW2ztHNrZPdj-6" target="Rqm7rj3_fW2ztHNrZPdj-21">
          <mxGeometry relative="1" as="geometry" />
        </mxCell>
        <mxCell id="Rqm7rj3_fW2ztHNrZPdj-46" style="edgeStyle=orthogonalEdgeStyle;rounded=0;orthogonalLoop=1;jettySize=auto;html=1;" edge="1" parent="1" source="Rqm7rj3_fW2ztHNrZPdj-6" target="Rqm7rj3_fW2ztHNrZPdj-22">
          <mxGeometry relative="1" as="geometry" />
        </mxCell>
        <mxCell id="Rqm7rj3_fW2ztHNrZPdj-6" value="" style="image;html=1;image=img/lib/clip_art/general/Full_Folder_128x128.png" vertex="1" parent="1">
          <mxGeometry x="73" y="498" width="48" height="48" as="geometry" />
        </mxCell>
        <mxCell id="Rqm7rj3_fW2ztHNrZPdj-8" value="Bronze Layer" style="text;html=1;align=center;verticalAlign=middle;whiteSpace=wrap;rounded=0;fontFamily=Lucida Console;labelBackgroundColor=default;" vertex="1" parent="1">
          <mxGeometry x="258" y="237" width="102" height="30" as="geometry" />
        </mxCell>
        <mxCell id="Rqm7rj3_fW2ztHNrZPdj-9" value="" style="rounded=1;whiteSpace=wrap;html=1;arcSize=4;dashed=1;fillColor=#f5f5f5;gradientColor=#b3b3b3;strokeColor=#666666;" vertex="1" parent="1">
          <mxGeometry x="463" y="251" width="150" height="380" as="geometry" />
        </mxCell>
        <mxCell id="Rqm7rj3_fW2ztHNrZPdj-10" value="Silver Layer" style="text;html=1;align=center;verticalAlign=middle;whiteSpace=wrap;rounded=0;fontFamily=Lucida Console;labelBackgroundColor=default;" vertex="1" parent="1">
          <mxGeometry x="491.5" y="237" width="93" height="30" as="geometry" />
        </mxCell>
        <mxCell id="Rqm7rj3_fW2ztHNrZPdj-11" value="" style="rounded=1;whiteSpace=wrap;html=1;arcSize=4;dashed=1;fillColor=#fff2cc;gradientColor=#ffd966;strokeColor=#d6b656;" vertex="1" parent="1">
          <mxGeometry x="684" y="251" width="150" height="380" as="geometry" />
        </mxCell>
        <mxCell id="Rqm7rj3_fW2ztHNrZPdj-12" value="Gold Layer" style="text;html=1;align=center;verticalAlign=middle;whiteSpace=wrap;rounded=0;fontFamily=Lucida Console;labelBackgroundColor=default;" vertex="1" parent="1">
          <mxGeometry x="720" y="237" width="86" height="30" as="geometry" />
        </mxCell>
        <mxCell id="Rqm7rj3_fW2ztHNrZPdj-38" style="edgeStyle=orthogonalEdgeStyle;rounded=0;orthogonalLoop=1;jettySize=auto;html=1;exitX=1;exitY=0.5;exitDx=0;exitDy=0;" edge="1" parent="1" source="Rqm7rj3_fW2ztHNrZPdj-17" target="Rqm7rj3_fW2ztHNrZPdj-23">
          <mxGeometry relative="1" as="geometry" />
        </mxCell>
        <mxCell id="Rqm7rj3_fW2ztHNrZPdj-17" value="crm_sales_details" style="rounded=1;whiteSpace=wrap;html=1;" vertex="1" parent="1">
          <mxGeometry x="252" y="304" width="120" height="24" as="geometry" />
        </mxCell>
        <mxCell id="Rqm7rj3_fW2ztHNrZPdj-39" style="edgeStyle=orthogonalEdgeStyle;rounded=0;orthogonalLoop=1;jettySize=auto;html=1;" edge="1" parent="1" source="Rqm7rj3_fW2ztHNrZPdj-18" target="Rqm7rj3_fW2ztHNrZPdj-24">
          <mxGeometry relative="1" as="geometry" />
        </mxCell>
        <mxCell id="Rqm7rj3_fW2ztHNrZPdj-18" value="crm_cust_info" style="rounded=1;whiteSpace=wrap;html=1;" vertex="1" parent="1">
          <mxGeometry x="252" y="344" width="120" height="24" as="geometry" />
        </mxCell>
        <mxCell id="Rqm7rj3_fW2ztHNrZPdj-40" style="edgeStyle=orthogonalEdgeStyle;rounded=0;orthogonalLoop=1;jettySize=auto;html=1;" edge="1" parent="1" source="Rqm7rj3_fW2ztHNrZPdj-19" target="Rqm7rj3_fW2ztHNrZPdj-25">
          <mxGeometry relative="1" as="geometry" />
        </mxCell>
        <mxCell id="Rqm7rj3_fW2ztHNrZPdj-19" value="crm_prd_info" style="rounded=1;whiteSpace=wrap;html=1;" vertex="1" parent="1">
          <mxGeometry x="252" y="383" width="120" height="24" as="geometry" />
        </mxCell>
        <mxCell id="Rqm7rj3_fW2ztHNrZPdj-41" style="edgeStyle=orthogonalEdgeStyle;rounded=0;orthogonalLoop=1;jettySize=auto;html=1;" edge="1" parent="1" source="Rqm7rj3_fW2ztHNrZPdj-20" target="Rqm7rj3_fW2ztHNrZPdj-26">
          <mxGeometry relative="1" as="geometry" />
        </mxCell>
        <mxCell id="Rqm7rj3_fW2ztHNrZPdj-20" value="erp_cust_az12" style="rounded=1;whiteSpace=wrap;html=1;" vertex="1" parent="1">
          <mxGeometry x="252" y="475" width="120" height="24" as="geometry" />
        </mxCell>
        <mxCell id="Rqm7rj3_fW2ztHNrZPdj-42" style="edgeStyle=orthogonalEdgeStyle;rounded=0;orthogonalLoop=1;jettySize=auto;html=1;" edge="1" parent="1" source="Rqm7rj3_fW2ztHNrZPdj-21" target="Rqm7rj3_fW2ztHNrZPdj-27">
          <mxGeometry relative="1" as="geometry" />
        </mxCell>
        <mxCell id="Rqm7rj3_fW2ztHNrZPdj-21" value="erp_loc_a101" style="rounded=1;whiteSpace=wrap;html=1;" vertex="1" parent="1">
          <mxGeometry x="252" y="510" width="120" height="24" as="geometry" />
        </mxCell>
        <mxCell id="Rqm7rj3_fW2ztHNrZPdj-43" style="edgeStyle=orthogonalEdgeStyle;rounded=0;orthogonalLoop=1;jettySize=auto;html=1;" edge="1" parent="1" source="Rqm7rj3_fW2ztHNrZPdj-22" target="Rqm7rj3_fW2ztHNrZPdj-28">
          <mxGeometry relative="1" as="geometry" />
        </mxCell>
        <mxCell id="Rqm7rj3_fW2ztHNrZPdj-22" value="erp_px_cat_g1v2" style="rounded=1;whiteSpace=wrap;html=1;" vertex="1" parent="1">
          <mxGeometry x="252" y="546" width="120" height="24" as="geometry" />
        </mxCell>
        <mxCell id="Rqm7rj3_fW2ztHNrZPdj-47" style="edgeStyle=orthogonalEdgeStyle;rounded=0;orthogonalLoop=1;jettySize=auto;html=1;entryX=0;entryY=0.5;entryDx=0;entryDy=0;" edge="1" parent="1" source="Rqm7rj3_fW2ztHNrZPdj-23" target="Rqm7rj3_fW2ztHNrZPdj-30">
          <mxGeometry relative="1" as="geometry" />
        </mxCell>
        <mxCell id="Rqm7rj3_fW2ztHNrZPdj-23" value="crm_sales_details" style="rounded=1;whiteSpace=wrap;html=1;" vertex="1" parent="1">
          <mxGeometry x="479" y="304" width="120" height="24" as="geometry" />
        </mxCell>
        <mxCell id="Rqm7rj3_fW2ztHNrZPdj-48" style="rounded=0;orthogonalLoop=1;jettySize=auto;html=1;entryX=0;entryY=0.5;entryDx=0;entryDy=0;jumpSize=0;strokeWidth=1;exitX=1;exitY=0.5;exitDx=0;exitDy=0;" edge="1" parent="1" source="Rqm7rj3_fW2ztHNrZPdj-24" target="Rqm7rj3_fW2ztHNrZPdj-31">
          <mxGeometry relative="1" as="geometry" />
        </mxCell>
        <mxCell id="Rqm7rj3_fW2ztHNrZPdj-24" value="crm_cust_info" style="rounded=1;whiteSpace=wrap;html=1;" vertex="1" parent="1">
          <mxGeometry x="479" y="344" width="120" height="24" as="geometry" />
        </mxCell>
        <mxCell id="Rqm7rj3_fW2ztHNrZPdj-50" style="rounded=0;orthogonalLoop=1;jettySize=auto;html=1;entryX=0;entryY=0.5;entryDx=0;entryDy=0;" edge="1" parent="1" source="Rqm7rj3_fW2ztHNrZPdj-25" target="Rqm7rj3_fW2ztHNrZPdj-32">
          <mxGeometry relative="1" as="geometry" />
        </mxCell>
        <mxCell id="Rqm7rj3_fW2ztHNrZPdj-25" value="crm_prd_info" style="rounded=1;whiteSpace=wrap;html=1;" vertex="1" parent="1">
          <mxGeometry x="479" y="383" width="120" height="24" as="geometry" />
        </mxCell>
        <mxCell id="Rqm7rj3_fW2ztHNrZPdj-51" style="rounded=0;orthogonalLoop=1;jettySize=auto;html=1;entryX=0;entryY=0.5;entryDx=0;entryDy=0;" edge="1" parent="1" source="Rqm7rj3_fW2ztHNrZPdj-26" target="Rqm7rj3_fW2ztHNrZPdj-31">
          <mxGeometry relative="1" as="geometry" />
        </mxCell>
        <mxCell id="Rqm7rj3_fW2ztHNrZPdj-26" value="erp_cust_az12" style="rounded=1;whiteSpace=wrap;html=1;" vertex="1" parent="1">
          <mxGeometry x="479" y="475" width="120" height="24" as="geometry" />
        </mxCell>
        <mxCell id="Rqm7rj3_fW2ztHNrZPdj-52" style="rounded=0;orthogonalLoop=1;jettySize=auto;html=1;entryX=0;entryY=0.5;entryDx=0;entryDy=0;" edge="1" parent="1" source="Rqm7rj3_fW2ztHNrZPdj-27" target="Rqm7rj3_fW2ztHNrZPdj-31">
          <mxGeometry relative="1" as="geometry" />
        </mxCell>
        <mxCell id="Rqm7rj3_fW2ztHNrZPdj-27" value="erp_loc_a101" style="rounded=1;whiteSpace=wrap;html=1;" vertex="1" parent="1">
          <mxGeometry x="479" y="510" width="120" height="24" as="geometry" />
        </mxCell>
        <mxCell id="Rqm7rj3_fW2ztHNrZPdj-55" style="rounded=0;orthogonalLoop=1;jettySize=auto;html=1;entryX=0;entryY=0.5;entryDx=0;entryDy=0;" edge="1" parent="1" source="Rqm7rj3_fW2ztHNrZPdj-28" target="Rqm7rj3_fW2ztHNrZPdj-32">
          <mxGeometry relative="1" as="geometry" />
        </mxCell>
        <mxCell id="Rqm7rj3_fW2ztHNrZPdj-28" value="erp_px_cat_g1v2" style="rounded=1;whiteSpace=wrap;html=1;" vertex="1" parent="1">
          <mxGeometry x="479" y="546" width="120" height="24" as="geometry" />
        </mxCell>
        <mxCell id="Rqm7rj3_fW2ztHNrZPdj-30" value="fact_sales" style="rounded=1;whiteSpace=wrap;html=1;" vertex="1" parent="1">
          <mxGeometry x="703" y="304" width="120" height="24" as="geometry" />
        </mxCell>
        <mxCell id="Rqm7rj3_fW2ztHNrZPdj-31" value="dim_customers" style="rounded=1;whiteSpace=wrap;html=1;" vertex="1" parent="1">
          <mxGeometry x="703" y="403" width="120" height="24" as="geometry" />
        </mxCell>
        <mxCell id="Rqm7rj3_fW2ztHNrZPdj-32" value="dim_products" style="rounded=1;whiteSpace=wrap;html=1;" vertex="1" parent="1">
          <mxGeometry x="703" y="501" width="120" height="24" as="geometry" />
        </mxCell>
        <mxCell id="Rqm7rj3_fW2ztHNrZPdj-58" value="&lt;b&gt;&lt;font style=&quot;font-size: 14px;&quot;&gt;CRM&lt;/font&gt;&lt;/b&gt;" style="text;html=1;align=center;verticalAlign=middle;whiteSpace=wrap;rounded=0;fillColor=none;fontColor=#CC6600;" vertex="1" parent="1">
          <mxGeometry x="65" y="310" width="60" height="30" as="geometry" />
        </mxCell>
        <mxCell id="Rqm7rj3_fW2ztHNrZPdj-59" value="&lt;b&gt;&lt;font style=&quot;font-size: 14px;&quot;&gt;ERP&lt;/font&gt;&lt;/b&gt;" style="text;html=1;align=center;verticalAlign=middle;whiteSpace=wrap;rounded=0;fillColor=none;fontColor=#CC6600;" vertex="1" parent="1">
          <mxGeometry x="65" y="477" width="60" height="30" as="geometry" />
        </mxCell>
        <mxCell id="Rqm7rj3_fW2ztHNrZPdj-60" value="&lt;font&gt;Data Flow&lt;/font&gt;" style="text;html=1;align=center;verticalAlign=middle;whiteSpace=wrap;rounded=0;fontStyle=1;fontSize=30;fontFamily=Verdana;" vertex="1" parent="1">
          <mxGeometry x="302" y="153" width="247" height="43" as="geometry" />
        </mxCell>
      </root>
    </mxGraphModel>
  </diagram>
</mxfile>
